<svg width="84" height="16" viewBox="0 0 84 16" fill="none" xmlns="http://www.w3.org/2000/svg">
<path d="M0.42 15V0.899999H6.88C8.38667 0.899999 9.54667 1.22667 10.36 1.88C11.1867 2.53333 11.6 3.42667 11.6 4.56C11.6 5.30667 11.4133 5.95333 11.04 6.5C10.6667 7.03333 10.1467 7.43333 9.48 7.7C10.28 7.92667 10.8933 8.32667 11.32 8.9C11.76 9.47333 11.98 10.18 11.98 11.02C11.98 12.2733 11.54 13.2533 10.66 13.96C9.79333 14.6533 8.60667 15 7.1 15H0.42ZM3.38 6.7H6.34C7.86 6.7 8.62 6.11333 8.62 4.94C8.62 3.78 7.86 3.2 6.34 3.2H3.38V6.7ZM3.38 12.7H6.68C7.48 12.7 8.06667 12.5467 8.44 12.24C8.81333 11.9333 9 11.4667 9 10.84C9 10.2267 8.81333 9.76667 8.44 9.46C8.06667 9.15333 7.48 9 6.68 9H3.38V12.7ZM14.3263 15V0.899999H20.7663C22.3396 0.899999 23.5529 1.28 24.4063 2.04C25.2596 2.8 25.6863 3.86 25.6863 5.22C25.6863 6.27333 25.4129 7.15333 24.8663 7.86C24.3329 8.55333 23.5663 9.02667 22.5663 9.28C23.2729 9.49333 23.8529 10.0067 24.3063 10.82L26.5863 15H23.1663L20.7263 10.5C20.5263 10.14 20.2796 9.89333 19.9863 9.76C19.6929 9.61333 19.3463 9.54 18.9463 9.54H17.4263V15H14.3263ZM17.4263 7.3H20.2063C21.8729 7.3 22.7063 6.63333 22.7063 5.3C22.7063 3.98 21.8729 3.32 20.2063 3.32H17.4263V7.3ZM34.6944 15.22C33.3077 15.22 32.0877 14.92 31.0344 14.32C29.9944 13.7067 29.181 12.86 28.5944 11.78C28.021 10.6867 27.7344 9.40667 27.7344 7.94C27.7344 6.47333 28.021 5.2 28.5944 4.12C29.181 3.02667 29.9944 2.18 31.0344 1.58C32.0744 0.98 33.2944 0.68 34.6944 0.68C36.0944 0.68 37.3144 0.98 38.3544 1.58C39.4077 2.18 40.221 3.02667 40.7944 4.12C41.381 5.2 41.6744 6.46667 41.6744 7.92C41.6744 9.38667 41.381 10.6667 40.7944 11.76C40.221 12.8533 39.4077 13.7067 38.3544 14.32C37.3144 14.92 36.0944 15.22 34.6944 15.22ZM34.6944 12.58C35.8677 12.58 36.781 12.1733 37.4344 11.36C38.101 10.5333 38.4344 9.39333 38.4344 7.94C38.4344 6.47333 38.1077 5.34 37.4544 4.54C36.801 3.72667 35.881 3.32 34.6944 3.32C33.5344 3.32 32.621 3.72667 31.9544 4.54C31.301 5.34 30.9744 6.47333 30.9744 7.94C30.9744 9.39333 31.301 10.5333 31.9544 11.36C32.621 12.1733 33.5344 12.58 34.6944 12.58ZM50.6123 15.22C49.2257 15.22 48.0057 14.92 46.9523 14.32C45.9123 13.7067 45.099 12.86 44.5123 11.78C43.939 10.6867 43.6523 9.40667 43.6523 7.94C43.6523 6.47333 43.939 5.2 44.5123 4.12C45.099 3.02667 45.9123 2.18 46.9523 1.58C47.9923 0.98 49.2123 0.68 50.6123 0.68C52.0123 0.68 53.2323 0.98 54.2723 1.58C55.3257 2.18 56.139 3.02667 56.7123 4.12C57.299 5.2 57.5923 6.46667 57.5923 7.92C57.5923 9.38667 57.299 10.6667 56.7123 11.76C56.139 12.8533 55.3257 13.7067 54.2723 14.32C53.2323 14.92 52.0123 15.22 50.6123 15.22ZM50.6123 12.58C51.7857 12.58 52.699 12.1733 53.3523 11.36C54.019 10.5333 54.3523 9.39333 54.3523 7.94C54.3523 6.47333 54.0257 5.34 53.3723 4.54C52.719 3.72667 51.799 3.32 50.6123 3.32C49.4523 3.32 48.539 3.72667 47.8723 4.54C47.219 5.34 46.8923 6.47333 46.8923 7.94C46.8923 9.39333 47.219 10.5333 47.8723 11.36C48.539 12.1733 49.4523 12.58 50.6123 12.58ZM59.9903 15V0.899999H63.0903V7.04H63.1303L68.9903 0.899999H72.7103L66.1503 7.64L72.9903 15H69.2303L63.1303 8.56H63.0903V15H59.9903ZM73.7208 15V0.899999H83.3808V3.32H76.6808V6.62H82.9408V9.06H76.6808V12.58H83.3808V15H73.7208Z" fill="#565594"/>
</svg>
